PathFileType	4	(X/Y/Z)	Walk5.trc
DataRate	CameraRate	NumFrames	NumMarkers	Units	OrigDataRate	OrigDataStartFrame	OrigNumFrames
200.000000	200.000000	8	61	mm	200.000000	222	487
Frame#	Times		LFHD		RFHD		CLAV		LASI		RASI		RACR1		RUA1		RFA1		RWRU		RCAR		LACR1		LUA1		LWRU		LCAR		RTH3		LTH1		LTH3		LTH2		LTH4		LLFC		LTB1		LTB2		LTB4		LFA1		RTB1		LToe		LTB3		STRN		RTB4		RWRR		RTB3		RMFC		RMT5		RTH2		LBHD		RMT1		RTB2		LElbow		RLFC		RMMAL		LMFC		RTH4		RToe		LWRR		T10		RElbow		RTH1		LPSI		RBack		RBHD		LMT5		RLMAL		RCAL		RPSI		LElbowM		LMMAL		RElbowM		LCAL		LLMAL		LMT1		C7
			X1	Y1	Z1	X2	Y2	Z2	X3	Y3	Z3	X4	Y4	Z4	X5	Y5	Z5	X6	Y6	Z6	X7	Y7	Z7	X8	Y8	Z8	X9	Y9	Z9	X10	Y10	Z10	X11	Y11	Z11	X12	Y12	Z12	X13	Y13	Z13	X14	Y14	Z14	X15	Y15	Z15	X16	Y16	Z16	X17	Y17	Z17	X18	Y18	Z18	X19	Y19	Z19	X20	Y20	Z20	X21	Y21	Z21	X22	Y22	Z22	X23	Y23	Z23	X24	Y24	Z24	X25	Y25	Z25	X26	Y26	Z26	X27	Y27	Z27	X28	Y28	Z28	X29	Y29	Z29	X30	Y30	Z30	X31	Y31	Z31	X32	Y32	Z32	X33	Y33	Z33	X34	Y34	Z34	X35	Y35	Z35	X36	Y36	Z36	X37	Y37	Z37	X38	Y38	Z38	X39	Y39	Z39	X40	Y40	Z40	X41	Y41	Z41	X42	Y42	Z42	X43	Y43	Z43	X44	Y44	Z44	X45	Y45	Z45	X46	Y46	Z46	X47	Y47	Z47	X48	Y48	Z48	X49	Y49	Z49	X50	Y50	Z50	X51	Y51	Z51	X52	Y52	Z52	X53	Y53	Z53	X54	Y54	Z54	X55	Y55	Z55	X56	Y56	Z56	X57	Y57	Z57	X58	Y58	Z58	X59	Y59	Z59	X60	Y60	Z60	X61	Y61	Z61

222	1.11	-431.05	1569.9	-67.647	-432.78	1574.1	32.332	-463.14	1289	-15.65	-496.49	882.45	-117.51	-498.77	895.88	133	-518.56	1328.4	153.6	-514.09	1160.5	211.59	-429.48	888.07	265.75	-340.3	806.91	229.99	-328.52	735.3	271.83	-547.17	1337	-164.89	-617.87	1178.6	-221.07	-736.55	789.37	-260.01	-795.77	738.81	-278.23	-655.33	581.19	166.34	-511.48	722.12	-191.42	-454.72	562.14	-161.19	-433.71	665.74	-152.87	-483.53	641.26	-178.22	-402.94	438.18	-135.67	-332.16	361.91	-74.401	-328.1	271.17	-129.56	-312.66	277.81	-70.835	-739.17	915.45	-260.4	-743.73	333.04	109.62	-106.92	109.06	-75.91	-287.03	197.07	-66.299	-444.82	1153.1	-8.7149	-787.93	258.24	100.83	-392.13	773.96	259.67	-832.95	185.61	88.854	-745.95	447.78	12.395	-860.25	24.068	106.16	-573.56	646.02	158.95	-567.85	1494.1	-90.564	-822.35	27.421	22.533	-831.58	280.18	138.1	-696.76	1041.9	-230.69	-716.49	440.14	140.06	-908.64	126.56	18.097	-422.21	417.48	-4.6222	-625.07	657.63	184.33	-772.69	20.639	57.789	-799.23	812.3	-240.99	-652.72	1184.8	1.5097	-512.16	994.37	251.27	-591.88	736.07	205.14	-668.99	941.25	-55.139	-645.9	1271.3	73.235	-569.68	1505.6	52.816	-183.13	66.314	-117.4	-934.08	114.73	95.91	-987.38	113.04	51.188	-668.68	941.11	44.76	-700.96	1025.2	-157.96	-290.36	95.31	-28.546	-548.74	984.49	182.65	-338.16	25.936	-63.275	-298.8	72.361	-107.64	-155.53	91.502	-44.831	-573.81	1392.7	-10.696
223	1.115	-422.7	1569.3	-68.163	-424.54	1573.2	31.81	-454.36	1288.1	-16.535	-487.48	881.56	-117.89	-489.82	894.87	132.47	-510.13	1327.4	152.69	-506.06	1159.5	210.82	-421.43	887.15	265.31	-332.11	806.09	229.75	-320.36	734.51	271.63	-538.3	1336.1	-165.87	-609.04	1177.7	-222.2	-728.1	788.64	-261.77	-787.43	738.16	-279.97	-646.51	580.23	166.18	-501.98	721.79	-191.53	-445.07	562	-160.8	-424.25	665.63	-152.62	-473.96	641.02	-178.04	-393.55	437.75	-135.53	-323.52	360.82	-74.077	-320.25	269.98	-128.97	-304.76	276.63	-70.276	-730.52	914.75	-261.96	-736.84	332.09	109.96	-100.76	105.05	-74.877	-279.92	195.73	-65.525	-435.9	1152.2	-9.654	-782.37	258.13	101.36	-383.98	773.09	259.35	-828.74	186.31	89.585	-737.48	446.97	12.74	-859.72	24.422	106.44	-564.75	645.06	158.65	-559.29	1493.1	-91.315	-822.41	27.35	22.675	-825.59	280.94	138.69	-687.92	1041	-232	-707.83	439.1	140.18	-905.77	128.63	19.243	-413.15	417.25	-4.5589	-616.26	656.73	183.96	-773.02	20.559	57.63	-790.73	811.66	-242.72	-643.87	1183.9	0.52176	-504.24	993.38	250.59	-583.1	735.26	204.51	-659.93	940.61	-55.938	-637.23	1270.3	72.064	-561.26	1504.4	52.062	-177.47	63.534	-116.47	-931.13	117.35	97.076	-984.44	117.02	52.567	-659.64	940.32	44	-692.06	1024.1	-159.32	-284.16	94.053	-27.702	-540.53	983.44	181.85	-332.91	25.964	-62.538	-292.8	71.309	-106.81	-149.5	88.062	-43.848	-565	1391.7	-11.723
224	1.12	-414.33	1568.7	-68.688	-416.28	1572.5	31.28	-445.54	1287.2	-17.444	-478.51	880.78	-118.32	-480.81	893.88	131.86	-501.67	1326.4	151.77	-498.05	1158.6	210.02	-413.49	886.26	264.87	-324.06	805.24	229.52	-312.38	733.69	271.46	-529.41	1335.1	-166.88	-600.08	1176.8	-223.38	-719.33	787.86	-263.61	-778.73	737.43	-281.82	-637.37	579.18	165.97	-492.59	721.54	-191.66	-435.43	561.98	-160.4	-414.82	665.64	-152.52	-464.46	640.87	-177.86	-384.08	437.47	-135.38	-315	359.76	-73.697	-312.64	268.82	-128.33	-297.14	275.42	-69.654	-721.62	914	-263.59	-729.59	331.06	110.3	-95.305	100.47	-73.73	-273.27	194.32	-64.683	-426.94	1151.4	-10.626	-776.48	257.99	101.92	-376	772.23	259.03	-824.22	187.04	90.339	-728.64	446.04	13.092	-859.12	24.867	106.73	-555.7	644.08	158.26	-550.7	1492.2	-92.09	-822.44	27.326	22.837	-819.22	281.71	139.28	-678.91	1040.1	-233.38	-698.75	437.93	140.28	-902.59	130.79	20.427	-403.99	417.26	-4.4852	-607.2	655.75	183.54	-773.39	20.46	57.482	-781.93	810.94	-244.54	-634.98	1183	-0.47401	-496.37	992.46	249.88	-574.15	734.39	203.82	-650.9	940.08	-56.661	-628.54	1269.4	70.86	-552.82	1503.3	51.281	-172.59	60.452	-115.49	-927.88	120.1	98.266	-981.11	121.21	53.971	-650.6	939.61	43.321	-683.03	1023.1	-160.74	-278.67	92.754	-26.832	-532.37	982.46	181	-328.52	26.136	-61.827	-287.52	70.271	-105.96	-144.22	84.16	-42.777	-556.16	1390.9	-12.772
225	1.125	-405.95	1568.2	-69.223	-408.03	1571.8	30.74	-436.69	1286.5	-18.375	-469.6	880.12	-118.79	-471.77	892.93	131.19	-493.18	1325.5	150.84	-490.05	1157.8	209.19	-405.66	885.39	264.41	-316.15	804.37	229.3	-304.58	732.86	271.3	-520.49	1334.3	-167.9	-591	1175.9	-224.58	-710.23	787.05	-265.53	-769.66	736.65	-283.77	-627.92	578.02	165.71	-483.33	721.36	-191.81	-425.82	562.07	-159.99	-405.42	665.77	-152.58	-455.03	640.81	-177.7	-374.57	437.35	-135.24	-306.58	358.74	-73.261	-305.24	267.72	-127.66	-289.79	274.24	-68.979	-712.48	913.21	-265.29	-721.95	329.97	110.65	-90.492	95.408	-72.485	-267.07	192.91	-63.793	-417.97	1150.7	-11.629	-770.23	257.83	102.5	-368.18	771.37	258.71	-819.37	187.81	91.112	-719.39	444.98	13.446	-858.43	25.424	107.02	-546.4	643.08	157.8	-542.09	1491.4	-92.886	-822.42	27.369	23.019	-812.47	282.5	139.87	-669.75	1039.2	-234.82	-689.21	436.65	140.34	-899.07	133.04	21.639	-394.73	417.51	-4.4077	-597.9	654.71	183.05	-773.78	20.341	57.353	-772.82	810.13	-246.44	-626.08	1182.3	-1.4722	-488.55	991.61	249.15	-565.01	733.49	203.06	-641.9	939.65	-57.302	-619.82	1268.5	69.631	-544.36	1502.2	50.476	-168.42	57.157	-114.5	-924.29	122.98	99.468	-977.37	125.62	55.39	-641.55	938.97	42.73	-673.86	1022	-162.21	-273.83	91.456	-25.967	-524.26	981.56	180.13	-324.91	26.451	-61.171	-282.9	69.285	-105.13	-139.63	79.893	-41.638	-547.28	1390.1	-13.838
226	1.13	-397.57	1567.8	-69.77	-399.77	1571.3	30.19	-427.81	1285.8	-19.321	-460.74	879.59	-119.32	-462.71	892.01	130.45	-484.64	1324.6	149.9	-482.06	1157	208.34	-397.94	884.55	263.94	-308.39	803.49	229.07	-296.97	732.02	271.15	-511.54	1333.5	-168.93	-581.79	1175	-225.82	-700.8	786.21	-267.53	-760.21	735.82	-285.83	-618.14	576.76	165.4	-474.21	721.26	-192.02	-416.26	562.27	-159.6	-396.08	666.01	-152.8	-445.71	640.85	-177.57	-365.03	437.39	-135.11	-298.27	357.79	-72.778	-298.02	266.71	-126.97	-282.7	273.11	-68.269	-703.1	912.38	-267.06	-713.92	328.8	111.01	-86.273	90.014	-71.16	-261.28	191.51	-62.879	-408.98	1150	-12.656	-763.61	257.64	103.08	-360.52	770.53	258.39	-814.15	188.62	91.898	-709.71	443.77	13.794	-857.64	26.118	107.33	-536.85	642.06	157.24	-533.46	1490.6	-93.703	-822.32	27.5	23.225	-805.31	283.3	140.45	-660.42	1038.3	-236.32	-679.2	435.23	140.37	-895.17	135.39	22.87	-385.4	418.02	-4.3338	-588.34	653.59	182.51	-774.18	20.2	57.246	-763.39	809.26	-248.43	-617.16	1181.6	-2.4665	-480.78	990.83	248.38	-555.7	732.54	202.23	-632.95	939.33	-57.856	-611.09	1267.8	68.387	-535.9	1501.2	49.649	-164.89	53.743	-113.51	-920.34	126	100.67	-973.17	130.28	56.813	-632.53	938.42	42.233	-664.55	1020.9	-163.74	-269.6	90.201	-25.137	-516.18	980.73	179.22	-321.97	26.898	-60.596	-278.86	68.385	-104.34	-135.67	75.375	-40.452	-538.38	1389.4	-14.913
227	1.135	-389.18	1567.5	-70.328	-391.51	1570.8	29.629	-418.91	1285.2	-20.277	-451.96	879.21	-119.89	-453.66	891.14	129.64	-476.05	1323.9	148.95	-474.07	1156.4	207.46	-390.33	883.76	263.46	-300.78	802.59	228.85	-289.56	731.17	271.03	-502.56	1332.8	-169.97	-572.46	1174.1	-227.08	-691.03	785.35	-269.6	-750.4	734.95	-287.99	-608.02	575.4	165.03	-465.24	721.23	-192.3	-406.78	562.59	-159.23	-386.82	666.37	-153.2	-436.51	640.97	-177.49	-355.48	437.6	-135	-290.1	356.93	-72.257	-290.97	265.82	-126.3	-275.86	272.06	-67.542	-693.46	911.53	-268.88	-705.47	327.57	111.37	-82.601	84.428	-69.776	-255.86	190.17	-61.966	-399.99	1149.4	-13.703	-756.59	257.45	103.67	-353.03	769.71	258.07	-808.54	189.48	92.69	-699.55	442.41	14.127	-856.73	26.977	107.65	-527.05	641.04	156.61	-524.81	1490	-94.537	-822.11	27.744	23.459	-797.72	284.12	141.01	-650.93	1037.4	-237.86	-668.72	433.69	140.36	-890.87	137.86	24.108	-376.05	418.75	-4.2718	-578.54	652.4	181.9	-774.57	20.035	57.171	-753.65	808.32	-250.51	-608.24	1181.1	-3.4505	-473.06	990.13	247.59	-546.23	731.55	201.34	-624.06	939.13	-58.32	-602.35	1267.2	67.14	-527.42	1500.2	48.805	-161.91	50.303	-112.57	-916.01	129.16	101.86	-968.48	135.17	58.232	-623.54	937.94	41.832	-655.1	1019.8	-165.32	-265.9	89.027	-24.369	-508.15	980	178.29	-319.6	27.462	-60.119	-275.33	67.596	-103.62	-132.29	70.726	-39.243	-529.45	1388.8	-15.988
228	1.14	-380.79	1567.3	-70.899	-383.25	1570.5	29.056	-410	1284.7	-21.236	-443.26	878.98	-120.5	-444.63	890.32	128.77	-467.42	1323.2	148.01	-466.07	1155.8	206.56	-382.82	883.01	262.96	-293.32	801.68	228.63	-282.34	730.31	270.91	-493.56	1332.2	-171	-563	1173.2	-228.36	-680.92	784.49	-271.72	-740.2	734.04	-290.25	-597.57	573.95	164.6	-456.43	721.28	-192.64	-397.38	563.01	-158.92	-377.65	666.84	-153.76	-427.43	641.19	-177.48	-345.95	437.95	-134.92	-282.08	356.15	-71.712	-284.08	265.06	-125.66	-269.25	271.1	-66.819	-683.56	910.67	-270.75	-696.58	326.3	111.72	-79.428	78.789	-68.356	-250.78	188.91	-61.08	-391	1148.9	-14.764	-749.17	257.26	104.25	-345.72	768.91	257.75	-802.53	190.4	93.479	-688.9	440.88	14.436	-855.67	28.033	107.97	-517	640.01	155.88	-516.14	1489.4	-95.385	-821.76	28.129	23.725	-789.68	284.97	141.54	-641.27	1036.5	-239.45	-657.76	432.04	140.31	-886.13	140.45	25.34	-366.7	419.7	-4.2294	-568.48	651.15	181.22	-774.92	19.848	57.133	-743.59	807.34	-252.66	-599.34	1180.7	-4.4172	-465.37	989.53	246.77	-536.6	730.52	200.39	-615.25	939.04	-58.69	-593.59	1266.7	65.906	-518.93	1499.4	47.947	-159.41	46.925	-111.7	-911.26	132.48	103.03	-963.27	140.32	59.635	-614.6	937.54	41.532	-645.5	1018.8	-166.93	-262.7	87.961	-23.682	-500.16	979.37	177.33	-317.71	28.118	-59.752	-272.25	66.927	-102.98	-129.44	66.065	-38.038	-520.49	1388.4	-17.053
229	1.145	-372.4	1567.2	-71.483	-374.98	1570.2	28.472	-401.08	1284.3	-22.191	-434.63	878.91	-121.16	-435.65	889.56	127.85	-458.74	1322.7	147.07	-458.06	1155.3	205.64	-375.42	882.31	262.44	-286.02	800.78	228.41	-275.33	729.46	270.81	-484.53	1331.7	-172.03	-553.42	1172.4	-229.65	-670.48	783.62	-273.9	-729.61	733.11	-292.61	-586.77	572.41	164.1	-447.78	721.41	-193.07	-388.1	563.53	-158.66	-368.58	667.39	-154.49	-418.48	641.48	-177.54	-336.46	438.44	-134.87	-274.22	355.47	-71.161	-277.35	264.42	-125.07	-262.89	270.23	-66.123	-673.41	909.79	-272.67	-687.25	324.97	112.07	-76.703	73.225	-66.924	-246.03	187.74	-60.245	-382.04	1148.5	-15.831	-741.32	257.07	104.82	-338.58	768.14	257.43	-796.1	191.39	94.254	-677.72	439.16	14.711	-854.42	29.32	108.3	-506.71	638.99	155.08	-507.45	1488.9	-96.243	-821.22	28.684	24.029	-781.17	285.84	142.03	-631.45	1035.6	-241.09	-646.32	430.27	140.22	-880.95	143.17	26.552	-357.41	420.83	-4.2146	-558.19	649.84	180.48	-775.2	19.64	57.144	-733.22	806.31	-254.89	-590.46	1180.4	-5.36	-457.73	989.03	245.94	-526.82	729.46	199.38	-606.53	939.05	-58.965	-584.83	1266.4	64.7	-510.43	1498.6	47.079	-157.33	43.685	-110.92	-906.07	135.96	104.17	-957.52	145.73	61.012	-605.72	937.23	41.33	-635.77	1017.7	-168.57	-259.95	87.016	-23.091	-492.22	978.85	176.36	-316.23	28.842	-59.498	-269.58	66.379	-102.44	-127.07	61.499	-36.861	-511.52	1388	-18.099
